<?xml version="1.0" encoding="UTF-8" standalone="no"?>
<svg width="536px" height="580px" viewBox="0 0 536 580" version="1.1" xmlns="http://www.w3.org/2000/svg" xmlns:xlink="http://www.w3.org/1999/xlink">
    <!-- Generator: Sketch 43.1 (39012) - http://www.bohemiancoding.com/sketch -->
    <title>anthill inside logo-08 copy 2</title>
    <desc>Created with Sketch.</desc>
    <defs></defs>
    <g id="V1" stroke="none" stroke-width="1" fill="none" fill-rule="evenodd">
        <g id="anthill-inside-logo-08-copy-2" fill-rule="nonzero">
            <rect id="Rectangle-path" fill="#F26822" transform="translate(65.829850, 536.915050) rotate(-21.161260) translate(-65.829850, -536.915050) " x="55.7825945" y="526.867794" width="20.0945111" height="20.0945111"></rect>
            <path d="M262.58,398.24 C267.754908,398.24 271.95,394.044908 271.95,388.87 C271.95,383.695092 267.754908,379.5 262.58,379.5 C257.405092,379.5 253.21,383.695092 253.21,388.87 C253.221001,394.040345 257.409655,398.228999 262.58,398.24 Z" id="Shape" fill="#F26822"></path>
            <circle id="Oval" fill="#51C1D3" cx="133.49" cy="371.62" r="9.29"></circle>
            <rect id="Rectangle-path" fill="#F26822" transform="translate(279.378358, 234.395669) rotate(-72.080000) translate(-279.378358, -234.395669) " x="269.303358" y="224.320669" width="20.15" height="20.15"></rect>
            <path d="M262.7,305.66 C268.012979,305.66 272.32,301.352979 272.32,296.04 C272.32,290.727021 268.012979,286.42 262.7,286.42 C257.387021,286.42 253.08,290.727021 253.08,296.04 C253.091002,301.348415 257.391585,305.648998 262.7,305.66 L262.7,305.66 Z" id="Shape" fill="#51C1D3"></path>
            <rect id="Rectangle-path" fill="#F26822" transform="translate(457.855350, 525.995050) rotate(-71.384308) translate(-457.855350, -525.995050) " x="447.755696" y="515.895396" width="20.1993072" height="20.1993072"></rect>
            <path d="M346.58,302.86 C352.102847,302.86 356.58,298.382847 356.58,292.86 C356.58,287.337153 352.102847,282.86 346.58,282.86 C341.057153,282.86 336.58,287.337153 336.58,292.86 C336.58,298.382847 341.057153,302.86 346.58,302.86 Z" id="Shape" fill="#F26822"></path>
            <path d="M156.79,578.72 L170.15,578.65 L170.15,478.15 L271.15,438.06 L271.15,501.78 C280.240484,504.570502 286.418099,513.001177 286.34,522.51 C286.34,534.505625 276.615625,544.23 264.62,544.23 C252.624375,544.23 242.9,534.505625 242.9,522.51 C242.818767,513.763287 248.064016,505.845931 256.15,502.51 L256.15,460.15 L185.15,488.33 L185.15,578.81 L200.9,579.19 L282.82,579.19 L329.14,536.87 L329.14,445.87 C319.447451,442.243039 313.739119,432.199894 315.582058,422.016382 C317.424996,411.83287 326.29107,404.427296 336.64,404.427296 C346.98893,404.427296 355.855004,411.83287 357.697942,422.016382 C359.540881,432.199894 353.832549,442.243039 344.14,445.87 L344.14,543.63 L304.52,579.21 L535.7,579.21 L291,19.6 C286.806007,9.54822688 277.834051,2.28270909 267.13,0.27 L267.13,157 L353.13,189 L353.13,271.85 C363.333593,275.002816 369.799151,285.028269 368.46208,295.623825 C367.125009,306.219381 358.371546,314.32432 347.704584,314.843445 C337.037622,315.362571 327.538509,308.145924 325.178893,297.730273 C322.819276,287.314623 328.280775,276.70872 338.13,272.58 L338.13,199.42 L252.13,167.42 L252.13,0.87 C242.296754,3.62952851 234.304153,10.8018074 230.5,20.28 L0.86,579.19 L156.68,579.19 L156.79,578.72 Z M397.15,365.92 L397.15,499.92 L438.8,514.65 L443.35,501.24 L485.13,515.48 L470.89,557.27 L429.1,543 L434,528.87 L382.19,510.55 L382.19,377.48 L255.15,344 L255.15,316.27 C246.785932,313.023524 241.241321,305.011561 241.15,296.04 C241.15,284.094081 250.834081,274.41 262.78,274.41 C274.725919,274.41 284.41,284.094081 284.41,296.04 C284.287973,305.091676 278.650827,313.150971 270.19,316.37 L270.19,332.47 L397.15,365.92 Z M133.49,350.32 C138.368321,350.317281 143.098034,351.998643 146.88,355.08 L188.51,338 L188.58,192 L262.1,216 L265.1,206.58 L307.1,220.16 L293.52,262.16 L251.52,248.58 L257.44,230.26 L203.57,212.7 L203.51,348.07 L154.51,368.18 C155.943703,376.984855 151.733388,385.749356 143.964048,390.133229 C136.194709,394.517102 126.515704,393.58969 119.72018,387.810259 C112.924656,382.030827 110.45524,372.626296 113.534813,364.253888 C116.614386,355.881481 124.589183,350.318583 133.51,350.32 L133.49,350.32 Z M92.35,553 L51.09,568.71 L35.38,527.45 L76.64,511.74 L81.64,524.67 L111.19,512.23 L111.19,443.66 L241.36,390.48 C241.36,389.95 241.26,389.42 241.26,388.88 C241.224844,378.658087 248.407682,369.831546 258.423481,367.788871 C268.439279,365.746195 278.504951,371.054982 282.47553,380.474284 C286.446109,389.893586 283.218291,400.806063 274.762619,406.549786 C266.306946,412.293508 254.972995,411.272469 247.68,404.11 L126.15,453.73 L126.15,522.22 L86.94,538.73 L92.35,553 Z" id="Shape" fill="#3F50A3"></path>
            <path d="M336.58,416.38 C332.764104,416.375956 329.321884,418.672018 327.859735,422.196673 C326.397586,425.721329 327.203741,429.779764 329.901988,432.478012 C332.600236,435.176259 336.658671,435.982414 340.183327,434.520265 C343.707982,433.058116 346.004044,429.615896 346,425.8 C345.988999,420.602041 341.777959,416.391001 336.58,416.38 L336.58,416.38 Z" id="Shape" fill="#51C1D3"></path>
            <path d="M264.58,532.24 C269.953731,532.24 274.31,527.883731 274.31,522.51 C274.31,517.136269 269.953731,512.78 264.58,512.78 C259.206269,512.78 254.85,517.136269 254.85,522.51 C254.855512,527.881446 259.208554,532.234488 264.58,532.24 Z" id="Shape" fill="#51C1D3"></path>
        </g>
    </g>
</svg>